<mxfile host="app.diagrams.net" modified="2023-07-02T11:51:27.668Z" agent="Mozilla/5.0 (Windows NT 10.0; Win64; x64) AppleWebKit/537.36 (KHTML, like Gecko) Chrome/114.0.0.0 Safari/537.36" etag="YAaFmcLgJXKwVIe2PNnl" version="21.5.2" type="device">
  <diagram id="XMUXtyX5-fALYA9FIsvU" name="Página-1">
    <mxGraphModel dx="505" dy="444" grid="1" gridSize="10" guides="1" tooltips="1" connect="1" arrows="1" fold="1" page="1" pageScale="1" pageWidth="827" pageHeight="1169" math="0" shadow="0">
      <root>
        <mxCell id="0" />
        <mxCell id="1" parent="0" />
        <mxCell id="8DO1Rx4T9jfybCHXWFRA-1" value="Início" style="ellipse;whiteSpace=wrap;html=1;" parent="1" vertex="1">
          <mxGeometry x="1261.6000000000001" y="120" width="70" height="40" as="geometry" />
        </mxCell>
        <mxCell id="8DO1Rx4T9jfybCHXWFRA-4" value="entrar com A,B,C" style="rounded=0;whiteSpace=wrap;html=1;" parent="1" vertex="1">
          <mxGeometry x="1171.6000000000001" y="200" width="250" height="30" as="geometry" />
        </mxCell>
        <mxCell id="8DO1Rx4T9jfybCHXWFRA-5" value="" style="endArrow=classic;html=1;rounded=0;exitX=0.5;exitY=1;exitDx=0;exitDy=0;entryX=0.5;entryY=0;entryDx=0;entryDy=0;" parent="1" source="8DO1Rx4T9jfybCHXWFRA-1" target="8DO1Rx4T9jfybCHXWFRA-4" edge="1">
          <mxGeometry width="50" height="50" relative="1" as="geometry">
            <mxPoint x="1296.93" y="230" as="sourcePoint" />
            <mxPoint x="1302.3467" y="151" as="targetPoint" />
          </mxGeometry>
        </mxCell>
        <mxCell id="8DO1Rx4T9jfybCHXWFRA-14" value="" style="endArrow=classic;html=1;rounded=0;exitX=0.5;exitY=1;exitDx=0;exitDy=0;entryX=0.5;entryY=0;entryDx=0;entryDy=0;" parent="1" source="8DO1Rx4T9jfybCHXWFRA-4" target="7M4bp0P8Vm2frEJgXk4b-3" edge="1">
          <mxGeometry width="50" height="50" relative="1" as="geometry">
            <mxPoint x="1311.76332" y="208.45" as="sourcePoint" />
            <mxPoint x="1311.93" y="230" as="targetPoint" />
          </mxGeometry>
        </mxCell>
        <mxCell id="8DO1Rx4T9jfybCHXWFRA-67" value="FIM" style="ellipse;whiteSpace=wrap;html=1;" parent="1" vertex="1">
          <mxGeometry x="1254" y="940" width="87.47" height="30" as="geometry" />
        </mxCell>
        <mxCell id="8DO1Rx4T9jfybCHXWFRA-70" value="&lt;b&gt;F&lt;/b&gt;" style="text;html=1;align=center;verticalAlign=middle;resizable=0;points=[];autosize=1;strokeColor=none;fillColor=none;" parent="1" vertex="1">
          <mxGeometry x="1327.73" y="150" width="30" height="30" as="geometry" />
        </mxCell>
        <mxCell id="8DO1Rx4T9jfybCHXWFRA-71" value="&lt;b&gt;V&lt;/b&gt;" style="text;html=1;align=center;verticalAlign=middle;resizable=0;points=[];autosize=1;strokeColor=none;fillColor=none;" parent="1" vertex="1">
          <mxGeometry x="1237.77" y="150" width="30" height="30" as="geometry" />
        </mxCell>
        <mxCell id="7M4bp0P8Vm2frEJgXk4b-6" style="edgeStyle=orthogonalEdgeStyle;rounded=0;orthogonalLoop=1;jettySize=auto;html=1;entryX=0.488;entryY=0.023;entryDx=0;entryDy=0;entryPerimeter=0;" parent="1" source="7M4bp0P8Vm2frEJgXk4b-3" target="7M4bp0P8Vm2frEJgXk4b-4" edge="1">
          <mxGeometry relative="1" as="geometry" />
        </mxCell>
        <mxCell id="7M4bp0P8Vm2frEJgXk4b-3" value="&lt;div&gt;A=PORTA;&lt;/div&gt;&lt;div&gt;B=PORTB;&lt;/div&gt;&lt;div&gt;C=PTT;&lt;span style=&quot;background-color: initial;&quot;&gt;&amp;nbsp; &amp;nbsp;&lt;/span&gt;&lt;/div&gt;" style="rounded=0;whiteSpace=wrap;html=1;align=center;" parent="1" vertex="1">
          <mxGeometry x="1235.46" y="250" width="122.27" height="60" as="geometry" />
        </mxCell>
        <mxCell id="7M4bp0P8Vm2frEJgXk4b-7" style="edgeStyle=orthogonalEdgeStyle;rounded=0;orthogonalLoop=1;jettySize=auto;html=1;entryX=0.5;entryY=1;entryDx=0;entryDy=0;" parent="1" source="7M4bp0P8Vm2frEJgXk4b-4" target="7M4bp0P8Vm2frEJgXk4b-5" edge="1">
          <mxGeometry relative="1" as="geometry" />
        </mxCell>
        <mxCell id="7M4bp0P8Vm2frEJgXk4b-10" style="edgeStyle=orthogonalEdgeStyle;rounded=0;orthogonalLoop=1;jettySize=auto;html=1;entryX=0.5;entryY=0;entryDx=0;entryDy=0;" parent="1" source="7M4bp0P8Vm2frEJgXk4b-4" target="7M4bp0P8Vm2frEJgXk4b-9" edge="1">
          <mxGeometry relative="1" as="geometry" />
        </mxCell>
        <mxCell id="7M4bp0P8Vm2frEJgXk4b-4" value="A=0" style="html=1;whiteSpace=wrap;aspect=fixed;shape=isoRectangle;" parent="1" vertex="1">
          <mxGeometry x="1223.2599999999998" y="330" width="146.67" height="87.99" as="geometry" />
        </mxCell>
        <mxCell id="7M4bp0P8Vm2frEJgXk4b-8" style="edgeStyle=orthogonalEdgeStyle;rounded=0;orthogonalLoop=1;jettySize=auto;html=1;entryX=1;entryY=0.5;entryDx=0;entryDy=0;" parent="1" source="7M4bp0P8Vm2frEJgXk4b-5" target="8DO1Rx4T9jfybCHXWFRA-4" edge="1">
          <mxGeometry relative="1" as="geometry" />
        </mxCell>
        <mxCell id="7M4bp0P8Vm2frEJgXk4b-5" value="Não podemos ter A=0" style="rounded=0;whiteSpace=wrap;html=1;" parent="1" vertex="1">
          <mxGeometry x="1380" y="270" width="250" height="30" as="geometry" />
        </mxCell>
        <mxCell id="7M4bp0P8Vm2frEJgXk4b-33" style="edgeStyle=orthogonalEdgeStyle;rounded=0;orthogonalLoop=1;jettySize=auto;html=1;entryX=0.502;entryY=0.023;entryDx=0;entryDy=0;entryPerimeter=0;" parent="1" source="7M4bp0P8Vm2frEJgXk4b-9" target="7M4bp0P8Vm2frEJgXk4b-13" edge="1">
          <mxGeometry relative="1" as="geometry" />
        </mxCell>
        <mxCell id="7M4bp0P8Vm2frEJgXk4b-9" value="delta=b*b - 4*a*c;" style="whiteSpace=wrap;html=1;" parent="1" vertex="1">
          <mxGeometry x="1236.59" y="440" width="120" height="60" as="geometry" />
        </mxCell>
        <mxCell id="7M4bp0P8Vm2frEJgXk4b-11" value="&lt;b&gt;V&lt;/b&gt;" style="text;html=1;align=center;verticalAlign=middle;resizable=0;points=[];autosize=1;strokeColor=none;fillColor=none;" parent="1" vertex="1">
          <mxGeometry x="1366.13" y="340" width="30" height="30" as="geometry" />
        </mxCell>
        <mxCell id="7M4bp0P8Vm2frEJgXk4b-12" value="&lt;b&gt;F&lt;/b&gt;" style="text;html=1;align=center;verticalAlign=middle;resizable=0;points=[];autosize=1;strokeColor=none;fillColor=none;" parent="1" vertex="1">
          <mxGeometry x="1264" y="417.99" width="30" height="30" as="geometry" />
        </mxCell>
        <mxCell id="7M4bp0P8Vm2frEJgXk4b-15" style="edgeStyle=orthogonalEdgeStyle;rounded=0;orthogonalLoop=1;jettySize=auto;html=1;entryX=1;entryY=0.5;entryDx=0;entryDy=0;" parent="1" source="7M4bp0P8Vm2frEJgXk4b-13" target="7M4bp0P8Vm2frEJgXk4b-14" edge="1">
          <mxGeometry relative="1" as="geometry" />
        </mxCell>
        <mxCell id="7M4bp0P8Vm2frEJgXk4b-19" style="edgeStyle=orthogonalEdgeStyle;rounded=0;orthogonalLoop=1;jettySize=auto;html=1;entryX=0;entryY=0.5;entryDx=0;entryDy=0;" parent="1" source="7M4bp0P8Vm2frEJgXk4b-13" target="7M4bp0P8Vm2frEJgXk4b-17" edge="1">
          <mxGeometry relative="1" as="geometry" />
        </mxCell>
        <mxCell id="7M4bp0P8Vm2frEJgXk4b-27" style="edgeStyle=orthogonalEdgeStyle;rounded=0;orthogonalLoop=1;jettySize=auto;html=1;entryX=0.5;entryY=0;entryDx=0;entryDy=0;" parent="1" source="7M4bp0P8Vm2frEJgXk4b-13" target="7M4bp0P8Vm2frEJgXk4b-21" edge="1">
          <mxGeometry relative="1" as="geometry" />
        </mxCell>
        <mxCell id="7M4bp0P8Vm2frEJgXk4b-13" value="A=0" style="html=1;whiteSpace=wrap;aspect=fixed;shape=isoRectangle;" parent="1" vertex="1">
          <mxGeometry x="1224.4399999999998" y="520" width="146.67" height="87.99" as="geometry" />
        </mxCell>
        <mxCell id="7M4bp0P8Vm2frEJgXk4b-14" value="Sem Raízes Reais" style="whiteSpace=wrap;html=1;" parent="1" vertex="1">
          <mxGeometry x="1037" y="535" width="120" height="60" as="geometry" />
        </mxCell>
        <mxCell id="7M4bp0P8Vm2frEJgXk4b-16" value="&lt;b&gt;0&amp;lt;&lt;/b&gt;" style="text;html=1;align=center;verticalAlign=middle;resizable=0;points=[];autosize=1;strokeColor=none;fillColor=none;" parent="1" vertex="1">
          <mxGeometry x="1184.44" y="530" width="40" height="30" as="geometry" />
        </mxCell>
        <mxCell id="7M4bp0P8Vm2frEJgXk4b-25" style="edgeStyle=orthogonalEdgeStyle;rounded=0;orthogonalLoop=1;jettySize=auto;html=1;entryX=0.5;entryY=0;entryDx=0;entryDy=0;" parent="1" source="7M4bp0P8Vm2frEJgXk4b-17" target="7M4bp0P8Vm2frEJgXk4b-22" edge="1">
          <mxGeometry relative="1" as="geometry" />
        </mxCell>
        <mxCell id="7M4bp0P8Vm2frEJgXk4b-17" value="x1=((float)-b)/(2.0*a);" style="whiteSpace=wrap;html=1;" parent="1" vertex="1">
          <mxGeometry x="1417" y="535" width="200" height="60" as="geometry" />
        </mxCell>
        <mxCell id="7M4bp0P8Vm2frEJgXk4b-20" value="&lt;b&gt;=0&lt;/b&gt;" style="text;html=1;align=center;verticalAlign=middle;resizable=0;points=[];autosize=1;strokeColor=none;fillColor=none;" parent="1" vertex="1">
          <mxGeometry x="1361.13" y="530" width="40" height="30" as="geometry" />
        </mxCell>
        <mxCell id="7M4bp0P8Vm2frEJgXk4b-28" style="edgeStyle=orthogonalEdgeStyle;rounded=0;orthogonalLoop=1;jettySize=auto;html=1;entryX=0.5;entryY=0;entryDx=0;entryDy=0;" parent="1" source="7M4bp0P8Vm2frEJgXk4b-21" target="7M4bp0P8Vm2frEJgXk4b-23" edge="1">
          <mxGeometry relative="1" as="geometry" />
        </mxCell>
        <mxCell id="7M4bp0P8Vm2frEJgXk4b-21" value="&lt;div style=&quot;background-color: rgb(40, 42, 54); line-height: 19px;&quot;&gt;&lt;font face=&quot;Consolas, Courier New, monospace&quot; color=&quot;#f8f8f2&quot;&gt;x1= (-b +&amp;nbsp; sqrtf(delta))/(2.0f*a);&lt;/font&gt;&lt;br&gt;&lt;/div&gt;" style="whiteSpace=wrap;html=1;" parent="1" vertex="1">
          <mxGeometry x="1127" y="640" width="300" height="60" as="geometry" />
        </mxCell>
        <mxCell id="7M4bp0P8Vm2frEJgXk4b-31" style="edgeStyle=orthogonalEdgeStyle;rounded=0;orthogonalLoop=1;jettySize=auto;html=1;entryX=1;entryY=0.5;entryDx=0;entryDy=0;" parent="1" source="7M4bp0P8Vm2frEJgXk4b-22" target="8DO1Rx4T9jfybCHXWFRA-67" edge="1">
          <mxGeometry relative="1" as="geometry">
            <Array as="points">
              <mxPoint x="1517" y="955" />
            </Array>
          </mxGeometry>
        </mxCell>
        <mxCell id="7M4bp0P8Vm2frEJgXk4b-22" value="x1=x2" style="whiteSpace=wrap;html=1;" parent="1" vertex="1">
          <mxGeometry x="1457" y="660" width="120" height="60" as="geometry" />
        </mxCell>
        <mxCell id="7M4bp0P8Vm2frEJgXk4b-29" style="edgeStyle=orthogonalEdgeStyle;rounded=0;orthogonalLoop=1;jettySize=auto;html=1;entryX=0.5;entryY=0;entryDx=0;entryDy=0;" parent="1" source="7M4bp0P8Vm2frEJgXk4b-23" target="7M4bp0P8Vm2frEJgXk4b-26" edge="1">
          <mxGeometry relative="1" as="geometry" />
        </mxCell>
        <mxCell id="7M4bp0P8Vm2frEJgXk4b-23" value="&lt;div style=&quot;background-color: rgb(40, 42, 54); line-height: 19px;&quot;&gt;&lt;font face=&quot;Consolas, Courier New, monospace&quot; color=&quot;#f8f8f2&quot;&gt;x2= (-b -&amp;nbsp; sqrtf(delta))/(2.0f*a);&lt;/font&gt;&lt;br&gt;&lt;/div&gt;" style="whiteSpace=wrap;html=1;" parent="1" vertex="1">
          <mxGeometry x="1127" y="730" width="300" height="60" as="geometry" />
        </mxCell>
        <mxCell id="7M4bp0P8Vm2frEJgXk4b-30" style="edgeStyle=orthogonalEdgeStyle;rounded=0;orthogonalLoop=1;jettySize=auto;html=1;entryX=0.5;entryY=0;entryDx=0;entryDy=0;" parent="1" source="7M4bp0P8Vm2frEJgXk4b-26" target="8DO1Rx4T9jfybCHXWFRA-67" edge="1">
          <mxGeometry relative="1" as="geometry" />
        </mxCell>
        <mxCell id="7M4bp0P8Vm2frEJgXk4b-26" value="x1=!x2" style="whiteSpace=wrap;html=1;" parent="1" vertex="1">
          <mxGeometry x="1237.73" y="830" width="120" height="60" as="geometry" />
        </mxCell>
        <mxCell id="7M4bp0P8Vm2frEJgXk4b-32" value="&lt;b&gt;&amp;gt;0&lt;/b&gt;" style="text;html=1;align=center;verticalAlign=middle;resizable=0;points=[];autosize=1;strokeColor=none;fillColor=none;" parent="1" vertex="1">
          <mxGeometry x="1317.73" y="610" width="40" height="30" as="geometry" />
        </mxCell>
        <mxCell id="3AiLIcMDl-SF7_MkjSM7-2" value="" style="edgeStyle=orthogonalEdgeStyle;rounded=0;orthogonalLoop=1;jettySize=auto;html=1;entryX=0.5;entryY=0;entryDx=0;entryDy=0;" parent="1" source="7M4bp0P8Vm2frEJgXk4b-14" target="3AiLIcMDl-SF7_MkjSM7-1" edge="1">
          <mxGeometry relative="1" as="geometry">
            <mxPoint x="1254" y="955" as="targetPoint" />
            <Array as="points" />
            <mxPoint x="1097" y="595" as="sourcePoint" />
          </mxGeometry>
        </mxCell>
        <mxCell id="3AiLIcMDl-SF7_MkjSM7-4" style="edgeStyle=orthogonalEdgeStyle;rounded=0;orthogonalLoop=1;jettySize=auto;html=1;entryX=0.5;entryY=0;entryDx=0;entryDy=0;" parent="1" source="3AiLIcMDl-SF7_MkjSM7-1" target="3AiLIcMDl-SF7_MkjSM7-3" edge="1">
          <mxGeometry relative="1" as="geometry" />
        </mxCell>
        <mxCell id="3AiLIcMDl-SF7_MkjSM7-1" value="x1=(-b)/(2.0f*a)" style="whiteSpace=wrap;html=1;" parent="1" vertex="1">
          <mxGeometry x="881" y="610" width="150" height="60" as="geometry" />
        </mxCell>
        <mxCell id="3AiLIcMDl-SF7_MkjSM7-7" style="edgeStyle=orthogonalEdgeStyle;rounded=0;orthogonalLoop=1;jettySize=auto;html=1;entryX=0.5;entryY=0;entryDx=0;entryDy=0;" parent="1" source="3AiLIcMDl-SF7_MkjSM7-3" target="3AiLIcMDl-SF7_MkjSM7-5" edge="1">
          <mxGeometry relative="1" as="geometry" />
        </mxCell>
        <mxCell id="3AiLIcMDl-SF7_MkjSM7-3" value="x2=(-b)/(2.0f*a)" style="whiteSpace=wrap;html=1;" parent="1" vertex="1">
          <mxGeometry x="881" y="690" width="150" height="60" as="geometry" />
        </mxCell>
        <mxCell id="3AiLIcMDl-SF7_MkjSM7-8" style="edgeStyle=orthogonalEdgeStyle;rounded=0;orthogonalLoop=1;jettySize=auto;html=1;entryX=0.5;entryY=0;entryDx=0;entryDy=0;" parent="1" source="3AiLIcMDl-SF7_MkjSM7-5" target="3AiLIcMDl-SF7_MkjSM7-6" edge="1">
          <mxGeometry relative="1" as="geometry" />
        </mxCell>
        <mxCell id="3AiLIcMDl-SF7_MkjSM7-5" value="&lt;div style=&quot;background-color: rgb(40, 42, 54); line-height: 19px;&quot;&gt;&lt;font face=&quot;Consolas, Courier New, monospace&quot; color=&quot;#f8f8f2&quot;&gt;x1Imag= -(sqrtf(delta))/(2.0f*a)&lt;/font&gt;&lt;br&gt;&lt;/div&gt;" style="whiteSpace=wrap;html=1;" parent="1" vertex="1">
          <mxGeometry x="827" y="780" width="270" height="60" as="geometry" />
        </mxCell>
        <mxCell id="3AiLIcMDl-SF7_MkjSM7-9" style="edgeStyle=orthogonalEdgeStyle;rounded=0;orthogonalLoop=1;jettySize=auto;html=1;entryX=0;entryY=0.5;entryDx=0;entryDy=0;" parent="1" source="3AiLIcMDl-SF7_MkjSM7-6" target="8DO1Rx4T9jfybCHXWFRA-67" edge="1">
          <mxGeometry relative="1" as="geometry">
            <Array as="points">
              <mxPoint x="952" y="955" />
            </Array>
          </mxGeometry>
        </mxCell>
        <mxCell id="3AiLIcMDl-SF7_MkjSM7-6" value="&lt;div style=&quot;background-color: rgb(40, 42, 54); line-height: 19px;&quot;&gt;&lt;font face=&quot;Consolas, Courier New, monospace&quot; color=&quot;#f8f8f2&quot;&gt;x2Imag= (sqrtf(delta))/(2.0f*a)&lt;/font&gt;&lt;br&gt;&lt;/div&gt;" style="whiteSpace=wrap;html=1;" parent="1" vertex="1">
          <mxGeometry x="827" y="860" width="270" height="60" as="geometry" />
        </mxCell>
      </root>
    </mxGraphModel>
  </diagram>
</mxfile>
